<svg width="114" height="56" viewBox="0 0 114 56" fill="none" xmlns="http://www.w3.org/2000/svg">
<path d="M2.93331 13.9279V11.4173C2.93331 8.96263 4.64613 8.20125 5.33612 8.20125C5.5101 8.20125 5.61908 8.21713 5.61908 8.21713C5.61908 6.34047 6.66783 6.06465 7.28481 6.06465C7.54184 6.06465 7.72403 6.11261 7.72403 6.11261C7.72403 5.66917 7.89024 3.84176 9.99488 3.84176C12.261 3.84176 13.5807 0.164263 13.6146 0C13.6491 0.164263 14.969 3.84176 17.235 3.84176C19.3395 3.84176 19.5058 5.66917 19.5058 6.11261C19.5058 6.11261 19.6879 6.06465 19.9449 6.06465C20.5618 6.06465 21.61 6.34058 21.61 8.21713C21.61 8.21713 21.719 8.20125 21.8931 8.20125C22.5833 8.20125 24.2963 8.96285 24.2963 11.4173V13.9279H20.8944V12.6644C20.8944 10.5032 20.4414 10.2853 19.8337 10.2853C19.6803 10.2853 19.5844 10.2992 19.5844 10.2992C19.5844 8.64695 18.6614 8.40385 18.1183 8.40385C17.8919 8.40385 17.7314 8.44608 17.7314 8.44608C17.7314 8.05567 17.5851 6.44641 15.732 6.44641C13.7366 6.44641 13.6449 3.85872 13.6146 3.71422C13.5848 3.85872 13.4934 6.44641 11.498 6.44641C9.64465 6.44641 9.49842 8.05567 9.49842 8.44608C9.49842 8.44608 9.33793 8.40385 9.11157 8.40385C8.56824 8.40385 7.64488 8.64684 7.64488 10.2992C7.64488 10.2992 7.54897 10.2853 7.39562 10.2853C6.78814 10.2853 6.30356 10.5031 6.30356 12.6644V13.9279H2.93331Z" fill="#EF7F1A"/>
<path fill-rule="evenodd" clip-rule="evenodd" d="M22.1162 13.5731C21.8947 13.6797 21.7042 13.7329 21.5449 13.7329C21.3544 13.7329 21.183 13.7203 21.0305 13.6948L20.8928 13.5731H22.1162ZM6.15419 13.5731C6.25624 13.6199 6.36381 13.6605 6.47677 13.6948L9.18176 13.7711L9.17204 16.2475H6.28627V28.7058C6.28627 29.2392 6.50215 29.7091 6.93403 30.1155C7.3658 30.5219 7.91183 30.725 8.57223 30.725C9.004 30.725 9.35326 30.8076 9.61991 30.9727C9.88666 31.1378 10.02 31.3727 10.02 31.6775C10.02 31.9316 9.88028 32.1728 9.6009 32.4013C9.32151 32.63 8.97862 32.7442 8.57223 32.7442C6.94666 32.7442 5.58148 32.2807 4.47657 31.3537C3.37176 30.4266 2.81936 29.29 2.81936 27.9438V16.2475H0V13.6948H3.23839L3.14292 13.5731H6.15419ZM30.5933 31.8299C30.5933 32.1093 30.479 32.3506 30.2504 32.5538C30.0219 32.757 29.7679 32.8586 29.4885 32.8586C27.7867 32.8586 26.339 32.3887 25.1452 31.4425C23.9514 30.5028 23.3545 29.3788 23.3545 28.0835V21.086L19.1255 22.0004V25.0483C19.1255 26.0135 18.7573 26.8136 18.0206 27.4485C17.2841 28.0835 16.4078 28.401 15.3919 28.401C14.2997 28.401 13.144 27.8423 11.9249 26.7247C10.7057 25.6071 10.0962 24.4769 10.0962 23.3338C10.0962 22.6734 10.3502 22.0639 10.8581 21.5051C11.4931 20.8194 12.3694 20.3495 13.4869 20.0955L15.5824 19.6383V16.3237L9.17204 16.2475L9.18176 13.7711L29.7788 13.6948L29.717 16.2475L26.8215 16.3237V28.8899C26.8215 29.4487 27.0755 29.925 27.5835 30.306C28.0914 30.6869 28.7264 30.8774 29.4885 30.8774C29.717 30.8774 29.9584 30.9473 30.2123 31.087C30.4663 31.2267 30.5933 31.4743 30.5933 31.8299ZM23.3545 18.0826V16.3237H19.1255V18.9589L23.3545 18.0826ZM15.5824 25.1627V22.6862C13.9315 23.0672 13.1059 23.6895 13.1059 24.553C13.1059 25.0864 13.2266 25.4992 13.4679 25.7912C13.7092 26.0833 14.0457 26.2293 14.4775 26.2293C14.7823 26.2293 15.0426 26.1341 15.2585 25.9437C15.4744 25.7532 15.5824 25.4928 15.5824 25.1627ZM51.8332 13.5731C51.6117 13.6797 51.4212 13.7329 51.2619 13.7329C51.0714 13.7329 50.9 13.7203 50.7475 13.6948L50.6098 13.5731H51.8332ZM35.8712 13.5731C35.9732 13.6199 36.0808 13.6605 36.1938 13.6948H39.6608V16.2475H36.0032V28.7058C36.0032 29.2392 36.2191 29.7091 36.651 30.1155C37.0828 30.5219 37.6288 30.725 38.2892 30.725C38.721 30.725 39.0702 30.8076 39.3369 30.9727C39.6036 31.1378 39.737 31.3727 39.737 31.6775C39.737 31.9316 39.5973 32.1728 39.3179 32.4013C39.0385 32.63 38.6956 32.7442 38.2892 32.7442C36.6637 32.7442 35.2985 32.2807 34.1936 31.3537C33.0888 30.4266 32.5363 29.29 32.5363 27.9438V16.2475H29.717L29.7788 13.6948H32.9554L32.8599 13.5731H35.8712ZM52.9987 27.4709C52.4907 27.8518 52.2829 28.0685 51.9285 28.2487C50.7844 28.8304 49.6553 29.1249 48.5378 29.1249C46.4042 29.1249 44.4992 28.3375 42.8229 26.7627C40.8926 24.9594 39.9274 22.6099 39.9274 19.7144C41.4006 20.1208 42.4039 20.3241 42.9372 20.3241C44.258 20.3241 45.3883 19.9431 46.328 19.181C47.2678 18.4191 47.7376 17.4666 47.7376 16.3237H46.4423C45.8328 16.3237 45.3057 16.4253 44.8612 16.6284C44.4167 16.8317 44.1945 17.073 44.1945 17.3523C44.1945 17.6317 44.3977 18.0127 44.8041 18.4953C44.9056 18.6223 44.9565 18.7874 44.9565 18.9906C44.9565 19.2954 44.8549 19.5494 44.6516 19.7526C44.4485 19.9558 44.1945 20.0573 43.8897 20.0573C43.6864 20.0573 43.5087 19.9812 43.3563 19.8288C42.6451 19.2446 42.1118 18.6604 41.7561 18.0762C41.4006 17.4921 41.2227 16.9078 41.2227 16.3237C41.2227 15.2061 41.6419 14.2663 42.48 13.5044C43.3182 12.7424 44.3342 12.3614 45.5279 12.3614C46.6201 12.3614 47.6932 13.0282 48.7473 14.3616C49.8013 15.695 50.3284 17.0857 50.3284 18.5334C50.3284 19.7526 49.8204 20.794 48.8044 21.6575C47.7885 22.5211 46.5566 22.9528 45.1089 22.9528C44.8802 22.9528 44.4739 22.8386 43.8897 22.6099C43.8135 22.9909 43.75 23.372 43.6992 23.753C43.6992 24.6674 44.1056 25.3785 44.9184 25.8865C45.5534 26.2928 46.2646 26.4961 47.0518 26.4961C48.0933 26.4961 49.0964 26.3177 50.0617 25.9627C51.306 25.505 52.1825 24.7943 52.9953 23.8291L52.9987 27.4709ZM60.0436 31.8299C60.0436 32.1093 59.9546 32.3506 59.7769 32.5538C59.5991 32.757 59.3577 32.8586 59.053 32.8586C57.402 32.8586 55.9797 32.3887 54.7859 31.4425C53.5921 30.5028 52.9953 29.3852 52.9953 28.0835V16.3237H50.176V13.7711H59.3577V16.3237H56.4622V28.8899C56.4622 29.4487 56.7099 29.925 57.2052 30.306C57.7005 30.6869 58.3164 30.8774 59.053 30.8774C59.307 30.8774 59.5356 30.9663 59.7387 31.1442C59.942 31.3219 60.0436 31.5505 60.0436 31.8299ZM82.8647 31.8299C82.8647 32.1093 82.7758 32.3506 82.5981 32.5538C82.4202 32.757 82.1789 32.8586 81.8741 32.8586C80.2232 32.8586 78.8008 32.3887 77.6071 31.4425C76.4133 30.4965 75.8164 29.3788 75.8164 28.0772V23.7911L71.5494 26.2675C71.3716 26.4707 71.1811 26.7881 70.9778 27.22C70.7747 27.6518 70.6096 27.8677 70.4826 27.8677C70.0508 27.8677 69.5809 27.5755 69.0729 26.9914C68.565 26.4072 68.1332 25.6198 67.7776 24.6293C68.692 23.8165 69.1491 23.2323 69.1491 22.8767C69.1491 22.4957 68.965 22.1592 68.5967 21.867C68.2284 21.575 67.8157 21.4289 67.3584 21.4289C66.4441 21.4289 65.6504 21.7528 64.9773 22.4004C64.3042 23.0481 63.9677 23.8291 63.9677 24.7435C63.9677 26.2675 64.6027 27.5755 65.8726 28.6677C67.1426 29.7599 68.6792 30.306 70.4826 30.306C70.8636 30.306 71.1875 30.4266 71.4541 30.6743C71.7207 30.9155 71.8541 31.1823 71.8541 31.4679C71.8541 31.8299 71.6636 32.1474 71.2827 32.4331C70.9017 32.7188 70.4444 32.8586 69.9112 32.8586C67.1426 32.2998 64.8821 31.1188 63.1295 29.3281C61.3769 27.5311 60.5007 25.5118 60.5007 23.2703C60.5007 21.7464 61.1484 20.4575 62.4437 19.4161C63.739 18.3684 65.3774 17.8476 67.3584 17.8476C68.5776 17.8476 69.6063 18.1905 70.4444 18.8763C71.2827 19.5684 71.7017 20.4066 71.7017 21.3971L71.5557 22.4322L75.8228 19.9558L75.8164 16.3237H59.3577V13.7711H82.1789V16.3237H79.2834V28.8899C79.2834 29.4487 79.5311 29.925 80.0263 30.306C80.5216 30.6869 81.1375 30.8774 81.8741 30.8774C82.1282 30.8774 82.3567 30.9663 82.5599 31.1442C82.7631 31.3219 82.8647 31.5505 82.8647 31.8299ZM92.0466 31.8299C92.0466 32.1093 91.9576 32.3506 91.7798 32.5538C91.6021 32.757 91.3607 32.8586 91.0559 32.8586C89.405 32.8586 87.9827 32.3887 86.7889 31.4425C85.5951 30.5028 84.9983 29.3852 84.9983 28.0835V16.3237H82.1789V13.7711H92.1227V16.3237H88.4652V28.8899C88.4652 29.4487 88.7128 29.925 89.2082 30.306C89.7035 30.6869 90.3194 30.8774 91.0559 30.8774C91.3099 30.8774 91.5386 30.9663 91.7417 31.1442C91.9449 31.3219 92.0466 31.5505 92.0466 31.8299Z" fill="#EF7F1A"/>
<path d="M72.2762 54.1713C72.2762 54.4507 72.1619 54.6919 71.9333 54.8952C71.7048 55.0983 71.4508 55.2 71.1714 55.2C69.4696 55.2 68.0219 54.7301 66.8281 53.7839C65.6343 52.8441 65.0374 51.7202 65.0374 50.4249V43.4274L60.8085 44.3418V47.3896C60.8085 48.3548 60.4402 49.155 59.7035 49.7899C58.967 50.4249 58.0907 50.7424 57.0748 50.7424C55.9826 50.7424 54.827 50.1836 53.6078 49.0661C52.3886 47.9484 51.7791 46.8182 51.7791 45.6752C51.7791 45.0148 52.0331 44.4053 52.541 43.8465C53.176 43.1607 54.0523 42.6908 55.1698 42.4368L57.2653 41.9797V38.665H50.8647V36.1124H72.1619V38.665H68.5044V51.2313C68.5044 51.7901 68.7584 52.2663 69.2664 52.6473C69.7743 53.0282 70.4094 53.2188 71.1714 53.2188C71.3999 53.2188 71.6413 53.2886 71.8952 53.4284C72.1492 53.568 72.2762 53.8157 72.2762 54.1713ZM65.0374 40.424V38.665H60.8085V41.3003L65.0374 40.424ZM57.2653 47.504V45.0275C55.6144 45.4086 54.7888 46.0308 54.7888 46.8944C54.7888 47.4278 54.9095 47.8405 55.1508 48.1326C55.3921 48.4247 55.7286 48.5707 56.1604 48.5707C56.4652 48.5707 56.7255 48.4754 56.9414 48.285C57.1573 48.0945 57.2653 47.8342 57.2653 47.504ZM86.7156 54.7047C86.7156 55.0602 86.5442 55.365 86.2013 55.619C85.8584 55.873 85.4711 56 85.0393 56C84.9123 56 84.7726 55.981 84.6202 55.9429C84.4678 55.9047 84.3535 55.873 84.2773 55.8476C80.7468 54.5268 77.9084 52.8759 75.7622 50.8948C73.616 48.9136 72.5428 46.9579 72.5428 45.0275C72.5428 44.1131 72.8222 43.3512 73.381 42.7416C73.9399 42.132 74.6383 41.8273 75.4764 41.8273C76.2638 41.8273 77.0321 41.9923 77.7814 42.3226C78.5307 42.6527 79.3117 43.1988 80.1245 43.9608V38.665H71.3999V36.1124H86.2584V38.665H83.5915V45.942C83.5915 46.7292 83.2804 47.3325 82.6581 47.7517C82.0358 48.1707 81.2548 48.3803 80.315 48.3803C79.3752 48.3803 78.4799 48.1326 77.629 47.6373C76.7781 47.142 76.0352 46.4499 75.4003 45.5609C75.3749 45.5863 75.3494 45.7387 75.3241 46.0181C75.2987 46.2975 75.2859 46.5388 75.2859 46.742C75.2859 47.6818 76.2257 48.7104 78.1053 49.828C79.8325 50.8439 82.3216 51.9488 85.5726 53.1426C85.9029 53.2696 86.1759 53.4664 86.3918 53.7331C86.6077 53.9998 86.7156 54.3237 86.7156 54.7047ZM104.051 54.095C104.051 54.3744 103.949 54.6284 103.746 54.8571C103.543 55.0856 103.295 55.2 102.99 55.2C101.498 55.2 100.196 54.7808 99.085 53.949C97.9739 53.1172 97.2563 52.0123 96.9261 50.628C95.218 51.8726 93.7258 52.495 92.4495 52.495C91.2811 52.495 89.973 51.7139 88.5317 50.1519C87.0903 48.5898 86.3728 47.1865 86.3728 45.942C86.3728 45.1292 86.9125 44.3228 87.992 43.5226C89.0714 42.7226 90.5128 42.0685 92.3161 41.5605C93.8147 41.3574 94.7417 40.7477 95.0974 39.7318C95.2815 39.9604 95.5038 40.2461 95.7704 40.5827C96.0308 40.9256 96.1642 41.3003 96.1642 41.7066C96.1642 42.3607 95.9355 42.9512 95.472 43.4655C95.0085 43.9861 94.183 44.4878 93.0019 44.964L95.1355 48.0754C95.4213 47.8214 95.6689 47.5802 95.8784 47.3516C96.1895 47.0278 96.5007 46.6595 96.8118 46.2531V38.665H85.4965V36.1124H104.012V38.665H100.355V51.1552C100.355 51.7139 100.609 52.1901 101.117 52.5711C101.625 52.9521 102.247 53.1426 102.984 53.1426C103.263 53.1426 103.511 53.2379 103.727 53.4284C103.943 53.6188 104.051 53.841 104.051 54.095ZM93.3448 49.0406L91.097 45.7133C90.081 46.3737 89.573 46.9452 89.573 47.4278C89.573 47.9612 89.7509 48.4183 90.1064 48.7993C90.462 49.1803 90.9192 49.3708 91.478 49.3708C92.113 49.3708 92.7353 49.2628 93.3448 49.0406ZM113.118 54.1713C113.118 54.4507 113.029 54.6919 112.851 54.8952C112.674 55.0983 112.432 55.2 112.128 55.2C110.477 55.2 109.054 54.7301 107.861 53.7839C106.667 52.8441 106.07 51.7266 106.07 50.4249V38.665H103.251V36.1124H113.194V38.665H109.537V51.2313C109.537 51.7901 109.784 52.2663 110.28 52.6473C110.775 53.0282 111.391 53.2188 112.128 53.2188C112.382 53.2188 112.61 53.3076 112.813 53.4855C113.017 53.6633 113.118 53.8919 113.118 54.1713Z" fill="#EF7F1A"/>
<path d="M32.8611 13.9279V11.4173C32.8611 8.96263 34.5739 8.20125 35.2639 8.20125C35.4379 8.20125 35.5468 8.21713 35.5468 8.21713C35.5468 6.34047 36.5956 6.06465 37.2126 6.06465C37.4696 6.06465 37.6518 6.11261 37.6518 6.11261C37.6518 5.66917 37.818 3.84176 39.9227 3.84176C42.1887 3.84176 43.5085 0.164263 43.5424 0C43.5768 0.164263 44.8968 3.84176 47.1627 3.84176C49.2673 3.84176 49.4336 5.66917 49.4336 6.11261C49.4336 6.11261 49.6157 6.06465 49.8727 6.06465C50.4896 6.06465 51.5378 6.34058 51.5378 8.21713C51.5378 8.21713 51.6468 8.20125 51.8208 8.20125C52.5111 8.20125 54.2241 8.96285 54.2241 11.4173V13.9279H50.8222V12.6644C50.8222 10.5032 50.3692 10.2853 49.7615 10.2853C49.6081 10.2853 49.5122 10.2992 49.5122 10.2992C49.5122 8.64695 48.5892 8.40385 48.046 8.40385C47.8197 8.40385 47.6592 8.44608 47.6592 8.44608C47.6592 8.05567 47.5129 6.44641 45.6598 6.44641C43.6644 6.44641 43.5727 3.85872 43.5424 3.71422C43.5126 3.85872 43.4212 6.44641 41.4257 6.44641C39.5724 6.44641 39.4262 8.05567 39.4262 8.44608C39.4262 8.44608 39.2657 8.40385 39.0393 8.40385C38.496 8.40385 37.5726 8.64684 37.5726 10.2992C37.5726 10.2992 37.4767 10.2853 37.3234 10.2853C36.7159 10.2853 36.2313 10.5031 36.2313 12.6644V13.9279H32.8611Z" fill="#EF7F1A"/>
</svg>
