<svg width="33" height="32" viewBox="0 0 33 32" fill="none" xmlns="http://www.w3.org/2000/svg">
<path d="M31 30L24.003 23.2443M24.003 23.2443C25.1999 22.0887 26.1493 20.7168 26.797 19.207C27.4448 17.6971 27.7781 16.0789 27.7781 14.4446C27.7781 12.8104 27.4448 11.1921 26.797 9.68227C26.1493 8.17242 25.1999 6.80054 24.003 5.64495C22.8062 4.48936 21.3853 3.57269 19.8215 2.94729C18.2577 2.32189 16.5817 2 14.8891 2C13.1965 2 11.5204 2.32189 9.95664 2.94729C8.39286 3.57269 6.97198 4.48936 5.77512 5.64495C3.35795 7.97876 2 11.1441 2 14.4446C2 17.7451 3.35795 20.9105 5.77512 23.2443C8.19229 25.5781 11.4707 26.8892 14.8891 26.8892C18.3075 26.8892 21.5859 25.5781 24.003 23.2443Z" stroke="white" stroke-width="4" stroke-linecap="round" stroke-linejoin="round"/>
</svg>
